<svg xmlns="http://www.w3.org/2000/svg" version="1.1" xmlns:xlink="http://www.w3.org/1999/xlink" xmlns:svgjs="http://svgjs.dev/svgjs" width="1000" height="1125" viewBox="0 0 1000 1125"><g transform="matrix(1,0,0,1,0,0)"><svg viewBox="0 0 320 360" data-background-color="#f9e17e" preserveAspectRatio="xMidYMid meet" height="1125" width="1000" xmlns="http://www.w3.org/2000/svg" xmlns:xlink="http://www.w3.org/1999/xlink"><defs></defs><g id="tight-bounds" transform="matrix(1,0,0,1,0,0)"><svg viewBox="0 0 320 360" height="360" width="320"><g><svg></svg></g><g><svg viewBox="0 0 320 360" height="360" width="320"><g><path d="M219.58 41.008c0.707 0 6.365 2.829 9.547 3.89-1.061 0.354-3.536-0.707-6.365-1.768 0.707 0 2.122 0.354 3.536 1.06-0.707-0.707-6.011-2.475-6.718-3.182M166.895 30.047c1.061-0.354 13.436 1.414 19.094 1.768 0.354-0.354-0.707-0.354-2.122-0.707 1.768-0.354 5.304 0.707 7.779 1.06-7.425 0.354-15.558-1.768-22.629-1.06-2.475 0-0.707-0.707-2.122-1.061M156.641 30.047c6.365 0 11.315 0 2.121 0.707-1.061-0.354-2.475-0.354-2.121-0.707M256.707 59.395c0.707 0 3.536 3.182 4.95 4.243-0.354 0.354-3.182-2.475-4.596-3.536 0.354 0.354 0 0-0.354-0.707M249.635 54.798c-2.829-2.475-3.889-2.475-4.243-3.889 2.475 1.414 4.243 2.829 4.243 3.889M204.022 32.522c0.354-0.354 1.061 0.354 2.829 0.707-2.122-0.354-1.768 0-1.061 0.707-2.475-0.354-3.182-0.707-2.475-1.414 1.414 0.707 1.768 0.354 0.707 0M103.602 36.765c0-0.354 1.414-1.061 2.475-1.414-1.061 0.707-0.707 1.061 1.061 0.353 0 0.354-2.122 1.061-3.536 1.768 0.707-0.354 1.414-1.414 0-0.707M211.094 28.986c-1.061 0.354-4.95-1.768-8.84-2.475-2.122-0.707 8.486 1.768 8.84 2.475M2.475 203.66c2.122 8.84 0.707 8.486 0 0M2.829 150.621c0.354-1.414 0.707-5.304 1.06-4.95-1.061 8.486-2.829 12.376-3.182 18.74 1.061-5.657-0.354 3.182-0.707 5.304 0.354 2.829 0.354-1.768 1.061-1.06 0.707 1.061-1.414 15.912-0.707 7.779-0.707 7.425 0 15.558 1.414 17.679-1.768 11.315 7.072 36.773 8.84 42.077 0.354 0.354 0-1.768 0.707-0.353 0.707 4.597 3.889 7.779 4.95 12.729 1.061 1.414 5.304 9.193 6.011 10.962 1.414 2.829 2.122 2.475 3.536 5.303 4.243 8.133 10.961 15.912 17.326 23.337 20.508 24.044 51.978 43.845 86.984 50.918 35.006 7.425 71.779 2.122 100.419-11.669 1.768-1.061 1.414-1.414 3.536-2.122 9.901-3.182 21.923-13.436 28.641-17.326 3.182-3.536 11.669-9.547 12.73-13.082 6.011-4.95 12.022-13.083 15.204-18.387 1.768-2.829 3.182-2.829 3.889-4.597-0.354 0 5.657-7.425 7.426-11.668-0.707 0-1.768 2.122-1.768 0 12.729-24.398 19.801-57.282 15.911-79.912 0.707 27.934-6.365 59.05-19.801 78.851-6.011 12.729-18.387 26.519-29.701 36.42-1.768 1.768-3.536 3.889-5.658 5.304-6.718 5.657-14.144 10.254-21.922 14.497-18.387 10.254-38.895 19.094-62.94 19.447 41.37-3.536 78.497-24.398 99.006-49.856-15.558 15.204-22.276 21.215-39.602 30.055-1.414 2.475-13.083 7.425-20.862 9.547 4.597-2.122 14.144-5.657 17.326-8.486-25.812 12.376-54.453 19.448-81.326 15.558 10.254 0 24.751 0.354 38.541-2.121 2.122-0.707 3.182-1.414 5.658-1.768 26.873-6.011 52.685-19.094 71.072-37.481-10.608 9.547-26.519 20.862-36.774 24.398 9.547-5.304 26.873-15.558 32.53-23.337-11.315 11.315-32.53 22.63-45.966 27.58-2.122 0.354 1.414-1.414-2.122 0-4.243 1.061-2.475 1.061-3.536 1.768-16.265 4.597-35.006 8.486-50.563 7.072-2.829-0.354-3.889-1.061-6.365-1.061-2.829-0.354-5.304-0.354-8.486-0.354-12.376-1.414-25.812-6.365-35.713-10.607-5.304-2.475-10.608-4.243-15.912-7.426-4.243-2.475-7.779-5.304-11.314-8.132-13.436-9.901-24.751-19.801-35.36-33.945-19.094-26.519-28.994-59.757-27.58-92.641 1.414-32.884 14.497-65.061 35.359-88.752-1.061 1.061 1.414-2.475 3.536-4.596 0 0.707-0.354 1.768 2.122-0.707 2.122-2.475-0.707-0.707 0.353-2.122 21.923-24.044 60.111-43.492 99.36-44.199 1.414-1.061 3.889-2.475 6.718-1.768 0 0.354-1.768 0.354-1.768 0.354 3.889-0.354 7.425-0.354 9.193 0.353 0.354-0.354-1.414-0.707 0-0.707 2.475 0.707 3.182 0 4.597 0.707-1.061 0-2.122 0-2.829 0.354 8.84 0 14.497 2.122 23.337 2.829-4.597-1.061-5.657-1.061-9.193-2.122 3.889 0.707 5.657 1.414 7.425 1.061-0.707 0-0.354-1.061 0.354-0.707 7.072 1.768 7.779 2.475 15.204 4.95 0.707-0.707-3.182-1.061-4.243-2.122 7.072 2.475 13.436 4.243 17.68 7.072-1.414-1.061-5.657-2.475-8.84-3.889-0.354 0.354 1.061 0.707 1.414 1.414-3.536-1.768-8.486-3.536-13.436-4.243 4.243 1.061 7.072 2.475 8.84 3.182-3.889-0.707-8.84-3.182-14.498-4.243 9.193 2.829 26.519 9.193 37.127 14.851-3.889-2.475-8.486-4.243-10.961-5.657 2.122 0.354 4.597 1.768 4.597 1.06 2.475 1.061 5.657 3.536 7.425 3.89-3.182-2.122-9.547-5.304-11.668-6.365 26.519 12.022 50.21 32.177 65.414 57.989 1.414 2.475 3.536 8.133 5.304 8.84-0.354-1.768-1.768-2.829-3.182-5.657 0.707 0 0.707-1.061 0-2.122-1.414-1.768 0 1.414-1.415-0.354-6.365-11.669-14.144-21.923-26.165-33.237 6.718 6.365 1.768 1.768 0.353-0.354 9.193 8.133 19.801 21.923 24.398 28.995-0.707-1.061-1.061-1.768-0.707-1.768 8.486 14.497 13.79 27.58 19.094 46.32 0.354 0.354 0-1.414 0.707-0.353 3.536 14.851 4.597 27.227 4.243 38.541 2.829-19.094-3.536-48.796-14.851-72.133-1.414-2.829-1.414-0.707-2.829-3.889 0-1.061-1.061-3.182-1.768-4.597-14.144-23.337-31.47-39.956-51.978-53.038 1.414 0.707 4.243 2.829 4.244 2.475-38.188-25.105-82.387-28.641-118.807-20.862-2.475 1.061-3.536 2.122-6.365 3.536 5.304-1.768 8.486-2.122 13.437-3.183 1.061-1.061-4.597 0.354-2.122-0.707 0.354 0.354 4.95-0.707 6.011-0.353 0 0.354-1.414 0.707-1.768 1.06 11.669-2.475 23.691-2.829 33.945-2.121-6.011 0.354-16.972-0.707-20.508 1.061 3.536-0.354 8.486-0.707 11.668-0.354-4.243 0-12.022 0.354-15.558 0.707-0.354-0.354 5.657-1.061 1.768-1.06-1.768 0.354-4.597 0.354-5.657 1.414-30.409 2.829-60.111 18.74-80.973 37.481-4.243 3.536-9.193 7.425-12.375 11.314-7.779 8.84-12.729 17.68-18.387 25.459 3.536-7.425 11.315-18.74 20.508-28.287 9.193-9.547 19.094-17.68 24.398-21.923 0 1.414 8.486-5.304 11.669-7.425-2.122 1.768 1.414-0.707 2.121-0.354 11.315-6.718 20.508-9.193 30.763-13.083-2.475 0.707-4.597 1.414-4.951 1.061 2.475-0.707 3.889-1.414 3.536-1.768-9.901 2.829-25.459 9.547-37.834 16.972 22.276-15.204 50.564-24.398 78.497-24.751 27.934-0.707 55.16 6.365 76.729 17.68 14.497 6.365 28.287 18.033 39.249 29.348 3.182 2.829 0.707-0.707 5.304 4.243-1.414-0.707-2.475-1.414-0.707 0.707 2.829 3.182-0.707-2.475 3.889 3.182-0.354 0-1.768-1.768-1.768-1.061 12.376 10.961 21.923 30.762 27.58 43.846-1.414-5.304-4.95-12.729-7.779-18.033 8.486 15.558 11.315 24.751 14.851 38.541 1.414 1.061-0.707-4.95 0.707-2.121 0.354 2.122 0.707 8.84 2.122 9.9-1.061-6.718-2.829-14.851-4.243-16.265 1.061 0.707-1.768-8.133-3.536-10.254-0.707-5.657-5.657-15.558-9.901-22.984-15.204-29.702-42.431-54.099-72.839-67.536 0-0.707-1.768-1.414-2.476-2.121-30.055-12.729-66.122-16.265-100.773-8.133-35.006 8.486-67.889 28.641-91.227 57.636 1.061-3.536 9.901-10.254 10.255-13.083-10.254 10.961-21.215 25.459-28.641 41.016-7.779 15.558-12.022 31.47-13.79 43.138" fill="#454545" data-fill-palette-color="tertiary"></path></g><g transform="matrix(1,0,0,1,48,116.33678495428664)"><svg viewBox="0 0 224 127.32643009142672" height="127.32643009142672" width="224"><g><svg viewBox="0 0 224 127.32643009142672" height="127.32643009142672" width="224"><g><svg viewBox="0 0 224.00000000000003 127.32643009142673" height="127.32643009142672" width="224"><g transform="matrix(1,0,0,1,0,94.22649013401477)"><svg viewBox="0 0 224.00000000000003 33.09993995741196" height="33.09993995741196" width="224.00000000000003"><g><svg viewBox="0 0 224.00000000000003 33.09993995741196" height="33.09993995741196" width="224.00000000000003"><g><svg viewBox="0 0 224.00000000000003 18.764946764946767" height="18.764946764946767" width="224.00000000000003"><g transform="matrix(1,0,0,1,0,0)"><svg width="224.00000000000003" viewBox="0 -35.79999923706055 427.32000732421875 35.79999923706055" height="18.764946764946767" data-palette-color="#454545"><path d="M40.35-2.15L52.4-2.15 52.4 0 33.75 0 26.4-23.95 26-23.95 18.65 0 0 0 0-2.15 12.05-2.15 0.6-34.95 6.95-34.95 15.75-9.8 23.55-34.95 28.85-34.95 36.65-9.8 45.45-34.95 51.8-34.95 40.35-2.15ZM91.25 0L91.25-2.15 86.4-2.15 86.4-34.95 80.5-34.95 80.5-19.8 63.15-19.8 63.15-34.95 57.25-34.95 57.25 0 63.15 0 63.15-14.3 80.5-14.3 80.5 0 91.25 0ZM52.4-2.15L57.25-2.15 57.25 0 52.4 0 52.4-2.15ZM127.4-2.15L133.19-2.15 133.19 0 122.05 0 118.55-7.95 101.05-7.95 97.55 0 86.4 0 86.4-2.15 92.2-2.15 106.65-34.95 112.95-34.95 127.4-2.15ZM103.45-13.4L116.15-13.4 109.8-27.8 103.45-13.4ZM146.39-2.15L158.54-2.15 158.54 0 128.34 0 128.34-2.15 140.49-2.15 140.49-29.55 129.89-29.55 129.89-34.95 156.99-34.95 156.99-29.55 146.39-29.55 146.39-2.15ZM158.54-2.15L163.39-2.15 163.39-34.95 169.29-34.95 189.59-8.85 189.59-34.95 195.49-34.95 195.49-2.15 200.34-2.15 200.34 0 189.09 0 169.29-25.5 169.29 0 158.54 0 158.54-2.15ZM230.89-2.15L242.34-2.15 242.34 0 200.34 0 200.34-2.15 211.79-2.15Q207.69-4.5 205.31-8.6 202.94-12.7 202.94-17.75L202.94-17.75Q202.94-25.45 208.24-30.63 213.54-35.8 221.34-35.8 229.14-35.8 234.44-30.63 239.74-25.45 239.74-17.75L239.74-17.75Q239.74-12.75 237.36-8.6 234.99-4.45 230.89-2.15L230.89-2.15ZM230.11-26.7Q226.54-30.4 221.34-30.4 216.14-30.4 212.56-26.7 208.99-23 208.99-17.73 208.99-12.45 212.56-8.75 216.14-5.05 221.34-5.05 226.54-5.05 230.11-8.75 233.69-12.45 233.69-17.73 233.69-23 230.11-26.7ZM260.39-2.15L272.54-2.15 272.54 0 242.34 0 242.34-2.15 254.49-2.15 254.49-29.55 243.89-29.55 243.89-34.95 270.99-34.95 270.99-29.55 260.39-29.55 260.39-2.15ZM272.53-2.15L286.23-2.15 286.23 0 272.53 0 272.53-2.15ZM319.03-2.15L323.88-2.15 323.88 0 313.08 0 304.73-11.75 296.98-11.75 296.98 0 286.23 0 286.23-2.15 291.08-2.15 291.08-34.95 304.08-34.95Q312.08-34.95 315.53-32.25 318.98-29.55 318.98-23.6L318.98-23.6Q318.98-14.95 311.43-12.7L311.43-12.7 319.03-2.15ZM304.33-17.1Q309.33-17.1 311.13-18.65 312.93-20.2 312.93-23.63 312.93-27.05 311.08-28.33 309.23-29.6 304.48-29.6L304.48-29.6 296.98-29.6 296.98-17.1 304.33-17.1ZM322.63-2.15L327.48-2.15 327.48-34.95 352.03-34.95 352.03-29.4 333.38-29.4 333.38-20.15 350.13-20.15 350.13-14.9 333.38-14.9 333.38-5.55 352.63-5.55 352.63-2.15 357.48-2.15 357.48 0 322.63 0 322.63-2.15ZM355.32-2.15L360.18-2.15 360.18-34.95 366.07-34.95 386.38-8.85 386.38-34.95 392.27-34.95 392.27-2.15 397.13-2.15 397.13 0 385.88 0 366.07-25.5 366.07 0 355.32 0 355.32-2.15ZM415.17-2.15L427.32-2.15 427.32 0 397.12 0 397.12-2.15 409.27-2.15 409.27-29.55 398.67-29.55 398.67-34.95 425.77-34.95 425.77-29.55 415.17-29.55 415.17-2.15Z" opacity="1" transform="matrix(1,0,0,1,0,0)" fill="#454545" class="undefined-text-0" data-fill-palette-color="primary" id="text-0"></path></svg></g></svg></g><g transform="matrix(1,0,0,1,0,21.50320285667486)"><svg viewBox="0 0 224.00000000000003 11.596737100737101" height="11.596737100737101" width="224.00000000000003"><g transform="matrix(1,0,0,1,0,0)"><svg width="224.00000000000003" viewBox="0.30000001192092896 -35 905.9100341796875 46.900001525878906" height="11.596737100737101" data-palette-color="#454545"><path d="M59.15-34.3L59.15-31.9 53.05-31.9 41.6 0.65 40.5 0.65 29.65-27.5 18.9 0.65 17.7 0.65 6.3-31.9 0.3-31.9 0.3-34.3 15.85-34.3 15.85-31.9 9.4-31.9 18.55-4.9 29.15-33.5 30.45-33.5 41.15-4.9 50.05-31.9 43.1-31.9 43.1-34.3 59.15-34.3ZM131.02-2.35L136.17-2.35 136.17 0 123.52 0 123.52-2.35 128.27-2.35 128.27-14.65Q128.27-18.15 126.77-19.95 125.27-21.75 122.27-21.75L122.27-21.75Q119.77-21.75 117.02-20.08 114.27-18.4 111.62-15.5L111.62-15.5 111.62-2.35 116.32-2.35 116.32 0 103.07 0 103.07-2.35 108.87-2.35 108.87-32 103.07-32 103.07-34.3 111.62-34.3 111.62-17.85Q114.47-20.9 117.27-22.55 120.07-24.2 123.17-24.2L123.17-24.2Q126.87-24.2 128.95-21.85 131.02-19.5 131.02-14.9L131.02-14.9 131.02-2.35ZM211.09-23.55L211.09-21.2 206.54-21.2 195.74 3.65Q192.14 11.9 186.19 11.9L186.19 11.9Q184.34 11.9 182.84 11.25 181.34 10.6 179.64 9.45L179.64 9.45 180.89 7.35Q182.19 8.3 183.47 8.85 184.74 9.4 186.19 9.4L186.19 9.4Q188.34 9.4 190.14 7.9 191.94 6.4 193.24 3.45L193.24 3.45 194.04 1.55 183.64-21.2 178.79-21.2 178.79-23.55 191.24-23.55 191.24-21.3 186.59-21.3 195.34-1.4 203.94-21.3 199.54-21.3 199.54-23.55 211.09-23.55ZM356.39-34.3L356.39-31.9 349.34-31.9 349.34 0.35 348.24 0.35 322.29-30 322.29-2.4 328.89-2.4 328.89 0 312.44 0 312.44-2.4 319.54-2.4 319.54-31.9 312.44-31.9 312.44-34.3 322.29-34.3 322.29-34.25 346.64-5.5 346.64-31.9 339.54-31.9 339.54-34.3 356.39-34.3ZM413.36 0.7Q409.96 0.65 407.08-0.9 404.21-2.45 402.53-5.28 400.86-8.1 400.86-11.75L400.86-11.75Q400.86-15.45 402.53-18.28 404.21-21.1 407.08-22.63 409.96-24.15 413.36-24.2L413.36-24.2Q416.71-24.15 419.56-22.63 422.41-21.1 424.11-18.28 425.81-15.45 425.81-11.75L425.81-11.75Q425.81-8.1 424.13-5.28 422.46-2.45 419.61-0.9 416.76 0.65 413.36 0.7L413.36 0.7ZM413.36-1.65Q416.16-1.65 418.33-2.93 420.51-4.2 421.76-6.48 423.01-8.75 423.01-11.75L423.01-11.75Q423.01-14.75 421.76-17.03 420.51-19.3 418.33-20.58 416.16-21.85 413.36-21.85L413.36-21.85Q410.56-21.85 408.36-20.58 406.16-19.3 404.91-17.03 403.66-14.75 403.66-11.75L403.66-11.75Q403.66-8.75 404.91-6.48 406.16-4.2 408.36-2.93 410.56-1.65 413.36-1.65L413.36-1.65ZM490.53-3.6L491.58-1.4Q489.68-0.4 488.05 0.13 486.43 0.65 484.38 0.65L484.38 0.65Q481.08 0.65 479-1.43 476.93-3.5 476.93-7.7L476.93-7.7 476.93-21.2 471.18-21.2 471.18-23.55 476.93-23.55 476.93-30.1 479.68-30.1 479.68-23.55 488.43-23.55 488.43-21.2 479.68-21.2 479.68-7.6Q479.68-4.5 481.1-3.18 482.53-1.85 484.63-1.85L484.63-1.85Q487.58-1.85 490.53-3.6L490.53-3.6ZM630.32-4.75L631.87-2.95Q629.07 0.65 624.87 0.65L624.87 0.65Q620.87 0.65 618.05-2.33 615.22-5.3 613.22-11.45L613.22-11.45 611.82-15.5 603.32-15.5 603.32-2.4 610.42-2.4 610.42 0 593.42 0.05 593.42-2.35 600.52-2.35 600.52-31.9 593.42-31.9 593.42-34.3 612.77-34.3Q616.47-34.3 619.15-33.08 621.82-31.85 623.22-29.7 624.62-27.55 624.62-24.8L624.62-24.8Q624.62-22.45 623.42-20.45 622.22-18.45 619.92-17.13 617.62-15.8 614.37-15.55L614.37-15.55 615.82-11.7Q617.67-6.7 619.87-4.33 622.07-1.95 624.97-1.95L624.97-1.95Q626.77-1.95 628.05-2.73 629.32-3.5 630.32-4.75L630.32-4.75ZM603.32-31.9L603.32-17.7 612.82-17.7Q615.57-17.7 617.6-18.65 619.62-19.6 620.72-21.2 621.82-22.8 621.82-24.8L621.82-24.8Q621.82-27.9 619.42-29.9 617.02-31.9 612.82-31.9L612.82-31.9 603.32-31.9ZM696.69-5.15L697.99-3.35Q695.84-1.45 693.44-0.4 691.04 0.65 687.99 0.65L687.99 0.65Q684.79 0.65 681.94-0.73 679.09-2.1 677.34-4.75 675.59-7.4 675.59-11.05L675.59-11.05Q675.59-15.15 677.44-18.13 679.29-21.1 682.19-22.63 685.09-24.15 688.24-24.15L688.24-24.15Q690.94-24.15 693.12-23.2 695.29-22.25 696.54-20.6 697.79-18.95 697.79-16.85L697.79-16.85Q697.79-14.7 696.47-13.2 695.14-11.7 692.97-10.93 690.79-10.15 688.34-10.15L688.34-10.15Q685.79-10.15 683.39-10.73 680.99-11.3 678.29-12.3L678.29-12.3Q678.24-11.9 678.24-11.1L678.24-11.1Q678.24-8.35 679.57-6.23 680.89-4.1 683.12-2.93 685.34-1.75 687.84-1.75L687.84-1.75Q690.64-1.75 692.72-2.63 694.79-3.5 696.69-5.15L696.69-5.15ZM688.34-21.85Q685.14-21.85 682.34-19.78 679.54-17.7 678.59-14.1L678.59-14.1Q683.54-12.35 687.99-12.35L687.99-12.35Q690.84-12.35 692.94-13.53 695.04-14.7 695.04-16.85L695.04-16.85Q695.04-19.1 693.19-20.48 691.34-21.85 688.34-21.85L688.34-21.85ZM772.52-2.35L777.67-2.35 777.67 0 765.02 0 765.02-2.35 769.77-2.35 769.77-14.65Q769.77-21.65 763.82-21.65L763.82-21.65Q761.27-21.65 758.52-20 755.77-18.35 753.12-15.5L753.12-15.5 753.12-2.35 757.87-2.35 757.87 0 744.57 0 744.57-2.35 750.37-2.35 750.37-21.2 744.57-21.2 744.57-23.55 753.12-23.55 753.12-17.85Q755.97-20.9 758.77-22.55 761.57-24.2 764.62-24.2L764.62-24.2Q768.32-24.2 770.42-21.85 772.52-19.5 772.52-14.9L772.52-14.9 772.52-2.35ZM840.59-3.6L841.64-1.4Q839.74-0.4 838.11 0.13 836.49 0.65 834.44 0.65L834.44 0.65Q831.14 0.65 829.06-1.43 826.99-3.5 826.99-7.7L826.99-7.7 826.99-21.2 821.24-21.2 821.24-23.55 826.99-23.55 826.99-30.1 829.74-30.1 829.74-23.55 838.49-23.55 838.49-21.2 829.74-21.2 829.74-7.6Q829.74-4.5 831.16-3.18 832.59-1.85 834.69-1.85L834.69-1.85Q837.64-1.85 840.59-3.6L840.59-3.6ZM886.96-33.25Q889.41-34.15 891.48-34.58 893.56-35 896.01-35L896.01-35Q898.66-35 901.01-34.13 903.36-33.25 904.78-31.5 906.21-29.75 906.21-27.35L906.21-27.35Q906.21-24.5 904.41-22.65 902.61-20.8 899.11-18.85L899.11-18.85Q896.41-17.4 895.28-16.73 894.16-16.05 893.38-15.18 892.61-14.3 892.61-13.15L892.61-13.15Q892.61-12.2 892.93-11.28 893.26-10.35 893.96-8.95L893.96-8.95 892.76-8.55Q891.41-10.75 890.88-11.85 890.36-12.95 890.36-14.05L890.36-14.05Q890.36-15.5 891.31-16.65 892.26-17.8 893.53-18.6 894.81-19.4 897.61-20.95L897.61-20.95Q900.56-22.6 901.93-23.95 903.31-25.3 903.31-27.35L903.31-27.35Q903.31-29.65 901.13-31.1 898.96-32.55 895.91-32.55L895.91-32.55Q893.66-32.55 891.81-32.13 889.96-31.7 887.81-30.8L887.81-30.8 886.96-33.25ZM894.46 0.65Q893.16 0.65 892.26-0.08 891.36-0.8 891.36-1.8L891.36-1.8Q891.36-2.85 892.26-3.58 893.16-4.3 894.46-4.3L894.46-4.3Q895.86-4.3 896.76-3.6 897.66-2.9 897.66-1.8L897.66-1.8Q897.66-0.8 896.73-0.08 895.81 0.65 894.46 0.65L894.46 0.65Z" opacity="1" transform="matrix(1,0,0,1,0,0)" fill="#454545" class="undefined-text-1" data-fill-palette-color="secondary" id="text-1"></path></svg></g></svg></g></svg></g></svg></g><g transform="matrix(1,0,0,1,49.20669495172545,0)"><svg viewBox="0 0 125.58661009654912 91.48823404228668" height="91.48823404228668" width="125.58661009654912"><g><svg xmlns="http://www.w3.org/2000/svg" xmlns:xlink="http://www.w3.org/1999/xlink" version="1.1" x="0" y="0" viewBox="0.8510000109672546 14.26400089263916 98.1197738647461 71.47899627685547" enable-background="new 0 0 100 100" xml:space="preserve" height="91.48823404228668" width="125.58661009654912" class="icon-icon-0" data-fill-palette-color="accent" id="icon-0"><g fill="#454545" data-fill-palette-color="accent"><path d="M98.528 72.041L84.934 60.014c-0.328-0.291-0.778-0.399-1.204-0.286l-8.994 2.374c-0.525 0.138-0.909 0.584-0.971 1.121l-0.221 1.973-4.554-1.143 0.002-23.085H57.027v-4.57H42.228v4.57H30.47v44.351h0.077l16.086-0.002v-7.618h6.226v7.618l16.127-0.003 0.004-19.774 4.392 1.099-0.655 5.837c-0.047 0.427 0.117 0.85 0.439 1.133l13.458 11.808c0.249 0.219 0.559 0.326 0.865 0.326 0.361 0 0.721-0.148 0.98-0.438l10.169-11.404c0.232-0.261 0.353-0.604 0.33-0.952C98.948 72.599 98.79 72.273 98.528 72.041zM42.223 73.613H36.02V67.41h6.203V73.613zM42.223 63.329H36.02v-6.201h6.203V63.329zM42.223 53.046H36.02v-6.203h6.203V53.046zM52.833 67.41v6.204H46.63V67.41v-0.003h6.203V67.41zM52.833 63.333H46.63v-6.206h6.203V63.333zM52.833 53.046H46.63v-6.203h6.203V53.046zM63.442 73.613H57.24V67.41h6.202V73.613zM63.442 63.329H57.24v-6.201h6.202V63.329zM63.442 53.046H57.24v-6.203h6.202V53.046zM87.377 82.585L75.412 72.086l0.54-4.819 1.999 0.489c0.07 0.878 0.688 1.648 1.588 1.87 1.124 0.275 2.259-0.414 2.535-1.536 0.276-1.125-0.412-2.261-1.536-2.534-0.855-0.21-1.718 0.141-2.202 0.816l-2.222-0.546 0.16-1.416 7.447-1.965 12.082 10.691L87.377 82.585z" fill="#454545" data-fill-palette-color="accent"></path></g><g fill="#454545" data-fill-palette-color="accent"><rect x="13.659" y="33.224" width="4.964" height="4.964" fill="#454545" data-fill-palette-color="accent"></rect><rect x="21.106" y="33.224" width="4.964" height="4.964" fill="#454545" data-fill-palette-color="accent"></rect><rect x="28.552" y="33.224" width="4.964" height="4.964" fill="#454545" data-fill-palette-color="accent"></rect><rect x="6.14" y="40.681" width="4.964" height="4.964" fill="#454545" data-fill-palette-color="accent"></rect><rect x="13.587" y="40.681" width="4.964" height="4.964" fill="#454545" data-fill-palette-color="accent"></rect><rect x="21.034" y="40.681" width="4.964" height="4.964" fill="#454545" data-fill-palette-color="accent"></rect><rect x="6.213" y="48.127" width="4.964" height="4.964" fill="#454545" data-fill-palette-color="accent"></rect><rect x="13.659" y="48.127" width="4.964" height="4.964" fill="#454545" data-fill-palette-color="accent"></rect><rect x="21.106" y="48.127" width="4.964" height="4.964" fill="#454545" data-fill-palette-color="accent"></rect><path d="M13.133 22.089v-5.84c0-1.096-0.889-1.985-1.984-1.985s-1.984 0.889-1.984 1.985v5.84H13.133z" fill="#454545" data-fill-palette-color="accent"></path><path d="M30.508 22.089v-5.84c0-1.096-0.889-1.985-1.984-1.985-1.096 0-1.984 0.889-1.984 1.985v5.84H30.508z" fill="#454545" data-fill-palette-color="accent"></path><path d="M28.552 55.721H5.319c-0.821 0-1.49-0.667-1.49-1.489V30.989c0-0.042 0.003-0.083 0.007-0.123h31.985c0.003 0.041 0.006 0.082 0.006 0.123v7.198h2.979V22.085H0.851v0.003 32.143c0 2.463 2.004 4.469 4.468 4.469h23.233V55.721zM26.542 25.626v-1.77-1.768h3.963v1.768 1.77 0.07h-0.003c-0.037 1.062-0.908 1.912-1.978 1.912-1.071 0-1.94-0.85-1.979-1.912h-0.003V25.626zM9.165 25.626v-1.77-1.768h3.963v1.768 1.77 0.07h-0.003c-0.038 1.062-0.908 1.912-1.978 1.912-1.071 0-1.941-0.85-1.979-1.912H9.165V25.626z" fill="#454545" data-fill-palette-color="accent"></path></g></svg></g></svg></g><g></g></svg></g></svg></g></svg></g></svg></g></svg><rect width="320" height="360" fill="none" stroke="none" visibility="hidden"></rect></g></svg></g></svg>